<svg width="24" height="24" viewBox="0 0 24 24" fill="none" xmlns="http://www.w3.org/2000/svg">
<g clip-path="url(#clip0_2_234)">
<path d="M10.5 7.63672V11.2736V12.7272V16.364H13.5001V12.7272V11.2736V7.63672H10.5Z" fill="white"/>
<path d="M1.50002 12.6821C2.32845 12.6821 3.00003 12.0106 3.00003 11.1821C3.00003 10.3537 2.32845 9.68213 1.50002 9.68213C0.671581 9.68213 0 10.3537 0 11.1821C0 12.0106 0.671581 12.6821 1.50002 12.6821Z" fill="white"/>
<path d="M1.50002 14.3179C2.32845 14.3179 3.00003 13.6463 3.00003 12.8179C3.00003 11.9894 2.32845 11.3179 1.50002 11.3179C0.671581 11.3179 0 11.9894 0 12.8179C0 13.6463 0.671581 14.3179 1.50002 14.3179Z" fill="white"/>
<path d="M3.00003 11.1821H0V12.8185H3.00003V11.1821Z" fill="white"/>
<path d="M22.5 14.3179C23.3285 14.3179 24 13.6463 24 12.8179C24 11.9894 23.3285 11.3179 22.5 11.3179C21.6716 11.3179 21 11.9894 21 12.8179C21 13.6463 21.6716 14.3179 22.5 14.3179Z" fill="white"/>
<path d="M22.5 12.6821C23.3285 12.6821 24 12.0106 24 11.1821C24 10.3537 23.3285 9.68213 22.5 9.68213C21.6716 9.68213 21 10.3537 21 11.1821C21 12.0106 21.6716 12.6821 22.5 12.6821Z" fill="white"/>
<path d="M21 12.8185H24V11.1821H21V12.8185Z" fill="white"/>
<path d="M6.68156 17.5908C7.50997 17.5908 8.18156 16.9193 8.18156 16.0908C8.18156 15.2624 7.50997 14.5908 6.68156 14.5908C5.85312 14.5908 5.18155 15.2624 5.18155 16.0908C5.18155 16.9193 5.85312 17.5908 6.68156 17.5908Z" fill="white"/>
<path d="M6.68156 19.2276C7.50997 19.2276 8.18156 18.5561 8.18156 17.7276C8.18156 16.8992 7.50997 16.2275 6.68156 16.2275C5.85312 16.2275 5.18155 16.8992 5.18155 17.7276C5.18155 18.5561 5.85312 19.2276 6.68156 19.2276Z" fill="white"/>
<path d="M8.18156 16.0908H5.18155V17.7272H8.18156V16.0908Z" fill="white"/>
<path d="M6.68156 7.77245C7.50997 7.77245 8.18156 7.10088 8.18156 6.27247C8.18156 5.44404 7.50997 4.77246 6.68156 4.77246C5.85312 4.77246 5.18155 5.44404 5.18155 6.27247C5.18155 7.10088 5.85312 7.77245 6.68156 7.77245Z" fill="white"/>
<path d="M6.68156 13.0903C7.50997 13.0903 8.18156 12.4188 8.18156 11.5903C8.18156 10.7619 7.50997 10.0903 6.68156 10.0903C5.85312 10.0903 5.18155 10.7619 5.18155 11.5903C5.18155 12.4188 5.85312 13.0903 6.68156 13.0903Z" fill="white"/>
<path d="M8.18156 6.27246H5.18155V11.6248H8.18156V6.27246Z" fill="white"/>
<path d="M17.3185 9.40969C18.1469 9.40969 18.8185 8.73812 18.8185 7.90968C18.8185 7.08124 18.1469 6.40967 17.3185 6.40967C16.49 6.40967 15.8185 7.08124 15.8185 7.90968C15.8185 8.73812 16.49 9.40969 17.3185 9.40969Z" fill="white"/>
<path d="M17.3185 7.77245C18.1469 7.77245 18.8185 7.10088 18.8185 6.27247C18.8185 5.44404 18.1469 4.77246 17.3185 4.77246C16.49 4.77246 15.8185 5.44404 15.8185 6.27247C15.8185 7.10088 16.49 7.77245 17.3185 7.77245Z" fill="white"/>
<path d="M15.8179 7.90882H18.818V6.27246H15.8179V7.90882Z" fill="white"/>
<path d="M12 4.63673C12.8285 4.63673 13.5001 3.96516 13.5001 3.13673C13.5001 2.3083 12.8285 1.63672 12 1.63672C11.1716 1.63672 10.5 2.3083 10.5 3.13673C10.5 3.96516 11.1716 4.63673 12 4.63673Z" fill="white"/>
<path d="M12 3.00001C12.8285 3.00001 13.5001 2.32844 13.5001 1.50001C13.5001 0.671577 12.8285 0 12 0C11.1716 0 10.5 0.671577 10.5 1.50001C10.5 2.32844 11.1716 3.00001 12 3.00001Z" fill="white"/>
<path d="M10.5 3.13638H13.5001V1.5H10.5V3.13638Z" fill="white"/>
<path d="M12 24C12.8285 24 13.5001 23.3284 13.5001 22.5C13.5001 21.6716 12.8285 21 12 21C11.1716 21 10.5 21.6716 10.5 22.5C10.5 23.3284 11.1716 24 12 24Z" fill="white"/>
<path d="M12 22.3643C12.8285 22.3643 13.5001 21.6927 13.5001 20.8643C13.5001 20.0358 12.8285 19.3643 12 19.3643C11.1716 19.3643 10.5 20.0358 10.5 20.8643C10.5 21.6927 11.1716 22.3643 12 22.3643Z" fill="white"/>
<path d="M10.5 22.5006H13.5001V20.8643H10.5V22.5006Z" fill="white"/>
<path d="M17.3185 19.2276C18.1469 19.2276 18.8185 18.5561 18.8185 17.7276C18.8185 16.8992 18.1469 16.2275 17.3185 16.2275C16.49 16.2275 15.8185 16.8992 15.8185 17.7276C15.8185 18.5561 16.49 19.2276 17.3185 19.2276Z" fill="white"/>
<path d="M17.3185 13.9097C18.1469 13.9097 18.8185 13.2381 18.8185 12.4097C18.8185 11.5812 18.1469 10.9097 17.3185 10.9097C16.49 10.9097 15.8185 11.5812 15.8185 12.4097C15.8185 13.2381 16.49 13.9097 17.3185 13.9097Z" fill="white"/>
<path d="M15.8179 17.7274H18.818V12.4092H15.8179V17.7274Z" fill="white"/>
<path d="M12 9.13677C12.8285 9.13677 13.5001 8.46513 13.5001 7.63676C13.5001 6.80832 12.8285 6.13672 12 6.13672C11.1716 6.13672 10.5 6.80832 10.5 7.63676C10.5 8.46513 11.1716 9.13677 12 9.13677Z" fill="white"/>
<path d="M12 17.8643C12.8285 17.8643 13.5001 17.1927 13.5001 16.3643C13.5001 15.5358 12.8285 14.8643 12 14.8643C11.1716 14.8643 10.5 15.5358 10.5 16.3643C10.5 17.1927 11.1716 17.8643 12 17.8643Z" fill="white"/>
</g>
<defs>
<clipPath id="clip0_2_234">
<rect width="24" height="24" fill="white"/>
</clipPath>
</defs>
</svg>
