<svg width="199" height="36" viewBox="0 0 199 36" fill="none" xmlns="http://www.w3.org/2000/svg">
<path d="M16.5867 11.4551V16.9104V19.0908V24.546H21.183V19.0908V16.9104V11.4551H16.5867Z" fill="#FAB908"/>
<path d="M2.79814 19.0227C4.06737 19.0227 5.09628 18.0154 5.09628 16.7727C5.09628 15.5301 4.06737 14.5227 2.79814 14.5227C1.52891 14.5227 0.5 15.5301 0.5 16.7727C0.5 18.0154 1.52891 19.0227 2.79814 19.0227Z" fill="#0066D9"/>
<path d="M2.79814 21.4773C4.06737 21.4773 5.09628 20.47 5.09628 19.2273C5.09628 17.9847 4.06737 16.9773 2.79814 16.9773C1.52891 16.9773 0.5 17.9847 0.5 19.2273C0.5 20.47 1.52891 21.4773 2.79814 21.4773Z" fill="#0066D9"/>
<path d="M5.09628 16.7729H0.5V19.2275H5.09628V16.7729Z" fill="#0066D9"/>
<path d="M34.9718 21.4773C36.2411 21.4773 37.2699 20.47 37.2699 19.2273C37.2699 17.9847 36.2411 16.9773 34.9718 16.9773C33.7026 16.9773 32.6737 17.9847 32.6737 19.2273C32.6737 20.47 33.7026 21.4773 34.9718 21.4773Z" fill="#4285F4"/>
<path d="M34.9718 19.0227C36.2411 19.0227 37.2699 18.0154 37.2699 16.7727C37.2699 15.5301 36.2411 14.5227 34.9718 14.5227C33.7026 14.5227 32.6737 15.5301 32.6737 16.7727C32.6737 18.0154 33.7026 19.0227 34.9718 19.0227Z" fill="#4285F4"/>
<path d="M32.6737 19.2278H37.2699V16.7732H32.6737V19.2278Z" fill="#4285F4"/>
<path d="M10.7369 26.3867C12.0061 26.3867 13.035 25.3794 13.035 24.1367C13.035 22.8941 12.0061 21.8867 10.7369 21.8867C9.46767 21.8867 8.43877 22.8941 8.43877 24.1367C8.43877 25.3794 9.46767 26.3867 10.7369 26.3867Z" fill="#EA4335"/>
<path d="M10.7369 28.8414C12.0061 28.8414 13.035 27.8341 13.035 26.5914C13.035 25.3488 12.0061 24.3413 10.7369 24.3413C9.46767 24.3413 8.43877 25.3488 8.43877 26.5914C8.43877 27.8341 9.46767 28.8414 10.7369 28.8414Z" fill="#EA4335"/>
<path d="M13.035 24.137H8.43877V26.5915H13.035V24.137Z" fill="#EA4335"/>
<path d="M10.7369 11.6592C12.0061 11.6592 13.035 10.6518 13.035 9.40919C13.035 8.16655 12.0061 7.15918 10.7369 7.15918C9.46767 7.15918 8.43877 8.16655 8.43877 9.40919C8.43877 10.6518 9.46767 11.6592 10.7369 11.6592Z" fill="#EA4335"/>
<path d="M10.7369 19.6363C12.0061 19.6363 13.035 18.6289 13.035 17.3862C13.035 16.1436 12.0061 15.1362 10.7369 15.1362C9.46767 15.1362 8.43877 16.1436 8.43877 17.3862C8.43877 18.6289 9.46767 19.6363 10.7369 19.6363Z" fill="#EA4335"/>
<path d="M13.035 9.40894H8.43877V17.4374H13.035V9.40894Z" fill="#EA4335"/>
<path d="M27.033 14.114C28.3022 14.114 29.3311 13.1067 29.3311 11.864C29.3311 10.6214 28.3022 9.61401 27.033 9.61401C25.7638 9.61401 24.7349 10.6214 24.7349 11.864C24.7349 13.1067 25.7638 14.114 27.033 14.114Z" fill="#34A853"/>
<path d="M27.033 11.6592C28.3022 11.6592 29.3311 10.6518 29.3311 9.40919C29.3311 8.16655 28.3022 7.15918 27.033 7.15918C25.7638 7.15918 24.7349 8.16655 24.7349 9.40919C24.7349 10.6518 25.7638 11.6592 27.033 11.6592Z" fill="#34A853"/>
<path d="M24.7346 11.8635H29.331V9.40894H24.7346V11.8635Z" fill="#34A853"/>
<path d="M18.8848 6.95485C20.1541 6.95485 21.183 5.9475 21.183 4.70484C21.183 3.4622 20.1541 2.45483 18.8848 2.45483C17.6156 2.45483 16.5867 3.4622 16.5867 4.70484C16.5867 5.9475 17.6156 6.95485 18.8848 6.95485Z" fill="#FAB908"/>
<path d="M18.8848 4.50002C20.1541 4.50002 21.183 3.49265 21.183 2.25001C21.183 1.00737 20.1541 0 18.8848 0C17.6156 0 16.5867 1.00737 16.5867 2.25001C16.5867 3.49265 17.6156 4.50002 18.8848 4.50002Z" fill="#FAB908"/>
<path d="M16.587 4.70457H21.1833V2.25H16.587V4.70457Z" fill="#FAB908"/>
<path d="M18.8848 36C20.1541 36 21.183 34.9927 21.183 33.75C21.183 32.5074 20.1541 31.5 18.8848 31.5C17.6156 31.5 16.5867 32.5074 16.5867 33.75C16.5867 34.9927 17.6156 36 18.8848 36Z" fill="#FAB908"/>
<path d="M18.8848 33.5459C20.1541 33.5459 21.183 32.5386 21.183 31.2959C21.183 30.0533 20.1541 29.0459 18.8848 29.0459C17.6156 29.0459 16.5867 30.0533 16.5867 31.2959C16.5867 32.5386 17.6156 33.5459 18.8848 33.5459Z" fill="#FAB908"/>
<path d="M16.587 33.7502H21.1833V31.2957H16.587V33.7502Z" fill="#FAB908"/>
<path d="M27.033 28.8414C28.3022 28.8414 29.3311 27.8341 29.3311 26.5914C29.3311 25.3488 28.3022 24.3413 27.033 24.3413C25.7638 24.3413 24.7349 25.3488 24.7349 26.5914C24.7349 27.8341 25.7638 28.8414 27.033 28.8414Z" fill="#34A853"/>
<path d="M27.033 20.8638C28.3022 20.8638 29.3311 19.8564 29.3311 18.6138C29.3311 17.3711 28.3022 16.3638 27.033 16.3638C25.7638 16.3638 24.7349 17.3711 24.7349 18.6138C24.7349 19.8564 25.7638 20.8638 27.033 20.8638Z" fill="#34A853"/>
<path d="M24.7346 26.5912H29.331V18.6138H24.7346V26.5912Z" fill="#34A853"/>
<path d="M18.8848 13.7047C20.1541 13.7047 21.183 12.6972 21.183 11.4547C21.183 10.212 20.1541 9.20459 18.8848 9.20459C17.6156 9.20459 16.5867 10.212 16.5867 11.4547C16.5867 12.6972 17.6156 13.7047 18.8848 13.7047Z" fill="#FAB908"/>
<path d="M18.8848 26.7959C20.1541 26.7959 21.183 25.7886 21.183 24.5459C21.183 23.3033 20.1541 22.2959 18.8848 22.2959C17.6156 22.2959 16.5867 23.3033 16.5867 24.5459C16.5867 25.7886 17.6156 26.7959 18.8848 26.7959Z" fill="#FAB908"/>
<path fill-rule="evenodd" clip-rule="evenodd" d="M121.897 23.6466H119.983V9.06616H125.059C126.32 9.06616 127.412 9.47683 128.334 10.2981C129.256 11.1195 129.717 12.1546 129.717 13.4036C129.717 14.6526 129.256 15.6878 128.334 16.5091C127.412 17.3305 126.32 17.7412 125.059 17.7412H121.897V23.6466ZM121.897 15.9491H125.1C125.904 15.9491 126.549 15.6844 127.034 15.155C127.519 14.6254 127.762 14.0417 127.762 13.4036C127.762 12.7656 127.519 12.1818 127.034 11.6524C126.549 11.1229 125.904 10.8582 125.1 10.8582H121.897V15.9491ZM131.304 14.8699C132.288 13.8516 133.543 13.3425 135.069 13.3425C136.594 13.3425 137.849 13.8482 138.833 14.8596C139.818 15.8711 140.31 17.1369 140.31 18.6574C140.31 20.178 139.818 21.4439 138.833 22.4553C137.849 23.4668 136.594 23.9724 135.069 23.9724C133.543 23.9724 132.288 23.4668 131.304 22.4553C130.32 21.4439 129.828 20.178 129.828 18.6574C129.828 17.1369 130.32 15.8744 131.304 14.8699ZM132.718 21.2844C133.384 21.936 134.168 22.2619 135.069 22.2619C135.97 22.2619 136.75 21.9327 137.409 21.2742C138.067 20.6158 138.396 19.7436 138.396 18.6574C138.396 17.5714 138.067 16.6992 137.409 16.0407C136.75 15.3823 135.97 15.0531 135.069 15.0531C134.168 15.0531 133.387 15.3823 132.728 16.0407C132.07 16.6992 131.741 17.5714 131.741 18.6574C131.741 19.7436 132.066 20.6192 132.718 21.2844ZM146.077 23.9724C144.76 23.9724 143.623 23.4633 142.666 22.4451C141.71 21.427 141.231 20.1644 141.231 18.6574C141.231 17.1505 141.71 15.888 142.666 14.8699C143.623 13.8516 144.76 13.3425 146.077 13.3425C146.854 13.3425 147.551 13.5055 148.167 13.8313C148.785 14.1571 149.246 14.5643 149.55 15.0531H149.634L149.55 13.6684V9.06616H151.465V23.6466H149.634V22.2619H149.55C149.246 22.7506 148.785 23.1579 148.167 23.4837C147.551 23.8095 146.854 23.9724 146.077 23.9724ZM146.39 22.2619C147.291 22.2619 148.057 21.936 148.688 21.2844C149.318 20.6328 149.634 19.7572 149.634 18.6574C149.634 17.5578 149.318 16.6822 148.688 16.0306C148.057 15.3789 147.291 15.0531 146.39 15.0531C145.502 15.0531 144.739 15.3823 144.101 16.0407C143.464 16.6992 143.144 17.5714 143.144 18.6574C143.144 19.7436 143.464 20.6158 144.101 21.2742C144.739 21.9327 145.502 22.2619 146.39 22.2619ZM158.105 23.9724C156.58 23.9724 155.325 23.4668 154.341 22.4553C153.356 21.4439 152.864 20.178 152.864 18.6574C152.864 17.1369 153.356 15.8711 154.341 14.8596C155.325 13.8482 156.58 13.3425 158.105 13.3425C159.242 13.3425 160.185 13.614 160.934 14.1571C161.683 14.7001 162.23 15.3857 162.577 16.2138L160.83 16.9265C160.303 15.6775 159.354 15.0531 157.981 15.0531C157.135 15.0531 156.39 15.3925 155.745 16.0713C155.1 16.7501 154.777 17.6121 154.777 18.6574C154.777 19.7028 155.1 20.5649 155.745 21.2436C156.39 21.9225 157.135 22.2619 157.981 22.2619C159.409 22.2619 160.393 21.6374 160.934 20.3885L162.639 21.1011C162.293 21.9157 161.735 22.5979 160.965 23.1476C160.195 23.6975 159.242 23.9724 158.105 23.9724ZM167.179 23.9724C166.098 23.9724 165.193 23.6669 164.465 23.0561C163.737 22.4451 163.373 21.6374 163.373 20.6328C163.373 19.5467 163.803 18.6948 164.663 18.0771C165.523 17.4594 166.583 17.1505 167.845 17.1505C168.968 17.1505 169.89 17.3542 170.611 17.7615V17.4764C170.611 16.7433 170.355 16.1562 169.842 15.7149C169.329 15.2737 168.698 15.0531 167.949 15.0531C167.394 15.0531 166.892 15.182 166.441 15.4401C165.991 15.698 165.682 16.0509 165.516 16.4989L163.768 15.7658C164.004 15.1685 164.469 14.6153 165.162 14.1062C165.855 13.5971 166.77 13.3425 167.907 13.3425C169.211 13.3425 170.293 13.7159 171.153 14.4626C172.012 15.2092 172.442 16.2613 172.442 17.6189V23.6466H170.611V22.2619H170.528C169.765 23.4023 168.65 23.9724 167.179 23.9724ZM167.491 22.2619C168.282 22.2619 168.999 21.9733 169.644 21.3964C170.289 20.8195 170.611 20.1373 170.611 19.3498C170.071 18.9155 169.259 18.6982 168.177 18.6982C167.248 18.6982 166.548 18.895 166.077 19.2887C165.606 19.6825 165.37 20.144 165.37 20.6734C165.37 21.1622 165.585 21.5492 166.015 21.8343C166.445 22.1194 166.937 22.2619 167.491 22.2619ZM178.043 23.9724C176.906 23.9724 175.966 23.7009 175.225 23.1579C174.482 22.6149 173.938 21.936 173.591 21.1215L175.297 20.4291C175.838 21.6781 176.76 22.3026 178.063 22.3026C178.66 22.3026 179.149 22.1736 179.529 21.9157C179.911 21.6578 180.102 21.3183 180.102 20.8975C180.102 20.2458 179.637 19.8047 178.708 19.5738L176.649 19.0851C175.997 18.9222 175.38 18.6134 174.798 18.1586C174.216 17.7038 173.925 17.0895 173.925 16.3157C173.925 15.4332 174.323 14.7171 175.12 14.1672C175.918 13.6175 176.864 13.3425 177.96 13.3425C178.861 13.3425 179.665 13.5428 180.372 13.9433C181.079 14.3438 181.586 14.9174 181.891 15.664L180.227 16.336C179.852 15.4535 179.075 15.0124 177.897 15.0124C177.329 15.0124 176.85 15.1278 176.462 15.3585C176.073 15.5893 175.879 15.9016 175.879 16.2952C175.879 16.8654 176.33 17.2524 177.231 17.4561L179.249 17.9244C180.205 18.1416 180.913 18.5149 181.371 19.0444C181.829 19.5738 182.057 20.1712 182.057 20.8364C182.057 21.7324 181.683 22.4791 180.934 23.0764C180.185 23.6738 179.221 23.9724 178.043 23.9724ZM187.783 23.8095C186.715 23.8095 185.901 23.5312 185.339 22.9746C184.777 22.4179 184.496 21.6306 184.496 20.6124V15.3789H182.707V13.6684H184.496V10.6138H186.41V13.6684H188.906V15.3789H186.41V20.4699C186.41 21.5559 186.868 22.0989 187.783 22.0989C188.129 22.0989 188.421 22.0447 188.656 21.936L189.322 23.5447C188.906 23.7213 188.392 23.8095 187.783 23.8095ZM194.485 23.9724C193.348 23.9724 192.409 23.7009 191.668 23.1579C190.926 22.6149 190.381 21.936 190.035 21.1215L191.74 20.4291C192.281 21.6781 193.203 22.3026 194.506 22.3026C195.103 22.3026 195.591 22.1736 195.973 21.9157C196.355 21.6578 196.544 21.3183 196.544 20.8975C196.544 20.2458 196.08 19.8047 195.151 19.5738L193.092 19.0851C192.44 18.9222 191.824 18.6134 191.241 18.1586C190.658 17.7038 190.367 17.0895 190.367 16.3157C190.367 15.4332 190.766 14.7171 191.563 14.1672C192.361 13.6175 193.307 13.3425 194.403 13.3425C195.304 13.3425 196.108 13.5428 196.816 13.9433C197.523 14.3438 198.029 14.9174 198.333 15.664L196.67 16.336C196.295 15.4535 195.519 15.0124 194.34 15.0124C193.771 15.0124 193.293 15.1278 192.905 15.3585C192.517 15.5893 192.323 15.9016 192.323 16.2952C192.323 16.8654 192.773 17.2524 193.675 17.4561L195.692 17.9244C196.649 18.1416 197.356 18.5149 197.814 19.0444C198.271 19.5738 198.5 20.1712 198.5 20.8364C198.5 21.7324 198.125 22.4791 197.377 23.0764C196.628 23.6738 195.665 23.9724 194.485 23.9724Z" fill="#14142B"/>
<path d="M47.3141 15.6135C47.3141 10.9999 51.2628 7.26123 55.9751 7.26123C58.575 7.26123 60.4275 8.26351 61.8249 9.56806L60.1674 11.1749C59.1763 10.2522 57.8275 9.53625 55.9751 9.53625C52.5465 9.53625 49.8654 12.2408 49.8654 15.5976C49.8654 18.9545 52.5465 21.659 55.9751 21.659C58.2013 21.659 59.4688 20.784 60.2812 19.9885C60.9475 19.3363 61.3862 18.3977 61.5486 17.1249H55.9751V14.8499H63.8235C63.9048 15.2635 63.9536 15.7408 63.9536 16.2817C63.9536 17.9999 63.4823 20.1158 61.9386 21.6113C60.4275 23.1386 58.51 23.9499 55.9751 23.9499C51.2628 23.9499 47.3141 20.2113 47.3141 15.6135ZM70.2096 13.3068C73.2482 13.3068 75.7181 15.5658 75.7181 18.684C75.7181 21.7863 73.2482 24.0613 70.2096 24.0613C67.171 24.0613 64.701 21.7863 64.701 18.684C64.701 15.5658 67.171 13.3068 70.2096 13.3068ZM70.2096 21.9294C71.8671 21.9294 73.3132 20.5932 73.3132 18.6681C73.3132 16.7272 71.8671 15.4068 70.2096 15.4068C68.5359 15.4068 67.106 16.7272 67.106 18.6681C67.106 20.5932 68.5522 21.9294 70.2096 21.9294ZM82.2342 13.3068C85.2728 13.3068 87.7428 15.5658 87.7428 18.684C87.7428 21.7863 85.2728 24.0613 82.2342 24.0613C79.1955 24.0613 76.7256 21.7863 76.7256 18.684C76.7256 15.5658 79.1955 13.3068 82.2342 13.3068ZM82.2342 21.9294C83.8916 21.9294 85.3378 20.5932 85.3378 18.6681C85.3378 16.7272 83.9079 15.4068 82.2342 15.4068C80.5604 15.4068 79.1305 16.7272 79.1305 18.6681C79.1305 20.5932 80.5767 21.9294 82.2342 21.9294ZM96.9887 13.4817H99.2961V23.1386C99.2961 27.1159 96.9074 28.7386 94.08 28.7386C91.4151 28.7386 89.8063 26.9886 89.2052 25.5568L91.3013 24.6977C91.6751 25.5727 92.5851 26.6068 94.0637 26.6068C95.8674 26.6068 96.9887 25.5091 96.9887 23.4568V22.6772H96.9074C96.3712 23.3295 95.3312 23.9022 94.015 23.9022C91.2689 23.9022 88.7502 21.5476 88.7502 18.5408C88.7502 15.5022 91.2689 13.1476 94.015 13.1476C95.3312 13.1476 96.3712 13.7203 96.9074 14.3568H96.9887V13.4817ZM94.2262 21.7863C95.8674 21.7863 97.1674 20.434 97.1511 18.5408C97.1511 16.6476 95.8674 15.2635 94.2262 15.2635C92.5688 15.2635 91.1714 16.6476 91.1714 18.5408C91.1714 20.4182 92.5688 21.7863 94.2262 21.7863ZM100.937 23.6954V7.8976H103.342V23.6954H100.937ZM109.956 21.9294C111.191 21.9294 112.035 21.3408 112.669 20.4499L114.538 21.6749C113.921 22.5499 112.474 24.0613 109.956 24.0613C106.835 24.0613 104.512 21.6909 104.512 18.684C104.512 15.4862 106.868 13.3068 109.696 13.3068C112.539 13.3068 113.937 15.5181 114.392 16.7272L114.636 17.3317L107.29 20.3068C107.86 21.3726 108.721 21.9294 109.956 21.9294ZM109.777 15.3749C108.542 15.3749 106.835 16.4408 106.901 18.509L111.808 16.5204C111.548 15.8363 110.736 15.3749 109.777 15.3749Z" fill="#14142B"/>
</svg>
