<svg width="355" height="254" viewBox="0 0 355 254" fill="none" xmlns="http://www.w3.org/2000/svg">
<circle cx="270.598" cy="133.964" r="3" transform="rotate(30 270.598 133.964)" fill="#81ADC8"/>
<circle cx="277.526" cy="137.964" r="4" transform="rotate(30 277.526 137.964)" fill="#81ADC8"/>
<path d="M265.732 140.392L267.19 140.368C268.087 140.353 268.919 140.833 269.355 141.618V141.618C269.79 142.402 270.623 142.883 271.52 142.868V142.868C272.417 142.853 273.249 143.333 273.685 144.118L274.392 145.392" stroke="black" stroke-width="2.5" stroke-linecap="round" stroke-linejoin="round"/>
<path d="M-5.07153 -46.3511C7.88388 -45.9844 18.7664 -42.8677 28.0943 -35.5343C41.9134 -24.901 48.823 -10.4175 47.9593 7.9159C47.6138 14.8826 44.85 20.9326 40.5315 26.066C33.1038 35.0494 23.4304 39.4494 12.2024 40.9161C11.1659 41.0994 10.3022 41.0994 9.26579 40.9161C-1.96223 38.8994 -13.0175 36.6994 -23.0364 30.6494C-35.9918 22.3993 -42.7286 10.1159 -42.5558 -6.01751C-42.2104 -24.5343 -28.564 -41.9511 -11.9811 -45.6177C-9.21726 -46.1677 -6.45344 -46.1677 -5.07153 -46.3511ZM-3.86235 -26.3676C-6.2807 -25.8176 -8.87178 -25.6343 -11.1174 -24.7176C-21.6544 -20.1343 -26.4911 -5.28417 -20.7908 5.16589C-18.8906 8.83258 -15.9541 11.5826 -12.4993 13.4159C-5.93522 16.8993 1.14707 19.0993 8.4021 19.8326C11.8569 20.1993 15.6571 19.466 18.9392 17.9993C26.8851 14.6993 30.1672 8.28257 28.4398 -0.15081C26.8851 -7.85086 23.2576 -14.4509 17.039 -19.0343C10.9932 -23.4343 3.91089 -25.6343 -3.86235 -26.3676Z" fill="#CD4631"/>
<path d="M12.5557 -90.3511C19.638 -89.6177 26.8931 -89.4344 33.9753 -88.3344C50.3855 -85.5844 63.6864 -76.601 73.7053 -62.6676C86.8334 -44.7008 93.9157 -24.1674 94.6067 -1.25056C94.9521 7.54949 93.2248 15.9829 89.9425 24.0496C86.8332 31.5663 83.0331 38.7163 78.0237 45.133C61.2681 66.3997 40.8849 81.4331 14.4558 85.2831C-3.33624 87.8498 -20.9556 86.7498 -37.7113 80.1497C-49.2848 75.383 -59.8219 68.5997 -69.1498 59.983C-72.2591 57.0496 -74.8502 53.1998 -77.0958 49.3497C-83.1417 38.533 -86.7692 26.6163 -90.0511 14.6995C-91.0875 11.0329 -90.9148 6.81616 -90.9148 2.96614C-90.9148 -21.6007 -82.6234 -42.5008 -65.3496 -59.1842C-45.6572 -78.0677 -22.683 -88.8844 4.26427 -89.8011C7.02792 -89.8011 9.79191 -89.8011 12.5557 -89.8011C12.5557 -89.9844 12.5557 -90.1677 12.5557 -90.3511ZM12.2102 -69.8176C-10.4185 -70.551 -30.4562 -63.0343 -48.0756 -48.1842C-55.3307 -41.9508 -61.5493 -34.8008 -65.695 -25.634C-75.1957 -4.55058 -73.2955 15.7995 -62.2403 35.5997C-60.5129 38.7162 -57.9218 41.283 -55.158 43.483C-50.6667 47.1497 -46.0027 50.4497 -41.166 53.5664C-28.2106 61.9996 -14.3915 66.7663 1.15497 66.033C31.2113 64.5663 53.1493 49.3497 68.8686 23.1329C70.7687 20.0162 72.1506 16.7162 73.187 13.2329C74.396 9.38284 75.2599 5.16615 75.4327 1.31612C75.4327 -18.6673 69.214 -36.4508 57.4678 -51.6675C49.8673 -61.3842 40.0212 -67.2509 27.9295 -68.5343C22.7473 -69.2676 17.3924 -69.451 12.2102 -69.8176Z" fill="#81ADC8"/>
<path d="M-13.1936 128C-27.5309 128 -39.4499 125.983 -50.8506 121.033C-58.2785 117.733 -65.0153 113.15 -70.8884 107.1C-78.8344 98.8498 -87.1258 90.5998 -95.2445 82.5331C-95.9354 81.7997 -96.7991 81.2497 -97.4901 80.5164C-100.254 77.7664 -103.536 75.1997 -105.782 71.8997C-117.355 55.2162 -126.165 37.0661 -128.41 15.9827C-130.31 -1.80076 -127.547 -18.8509 -121.155 -35.1676C-116.146 -48.1844 -109.755 -60.2844 -101.29 -70.9178C-92.6534 -81.7346 -82.8074 -90.5346 -71.0611 -97.318C-57.0693 -105.018 -42.9046 -112.351 -28.0491 -118.218C-6.80224 -126.468 15.3083 -129.768 37.9371 -128.851C46.2286 -128.485 54.1745 -126.468 61.4296 -122.251C70.0665 -117.301 78.7034 -112.168 86.6494 -106.301C103.404 -94.2013 113.596 -76.6012 120.16 -56.8011C129.488 -28.5676 130.524 0.399246 123.097 29.3661C121.542 35.4161 119.469 41.4662 116.878 46.9662C104.786 72.2663 87.6859 92.6164 63.5024 105.817C38.6281 119.383 12.5445 126.717 -13.1936 128ZM-13.5391 107.65C10.1262 106.183 33.7914 99.3998 56.0747 87.1164C74.2122 77.033 87.1676 61.6329 97.1865 43.1162C100.123 37.6161 102.713 31.5661 104.268 25.3327C111.005 -0.70076 110.141 -26.7342 101.159 -52.0344C95.8046 -67.0678 88.0313 -80.4512 75.0759 -89.8013C68.1664 -94.7513 60.7386 -99.1513 53.3108 -103.551C47.6105 -106.851 41.3919 -108.318 35.0005 -108.501C15.1356 -108.868 -4.3839 -105.935 -23.0397 -98.418C-36.1678 -93.1013 -48.9505 -86.5013 -61.3878 -79.5345C-71.0611 -74.0345 -79.1799 -66.8845 -86.2621 -58.0844C-93.3444 -49.2844 -98.5265 -39.3843 -102.845 -28.7509C-109.409 -12.6175 -111.655 3.8826 -108.2 21.116C-106.645 28.8161 -104.572 35.9661 -98.6993 41.6495C-95.9354 44.3995 -93.8626 48.0662 -91.7897 51.3662C-89.8896 54.2996 -88.1622 57.2329 -86.6076 60.3496C-84.0165 65.1163 -80.7345 69.1497 -76.9342 72.8163C-70.8884 78.683 -64.6698 84.7331 -58.9694 90.9664C-52.9235 97.3831 -45.8412 101.6 -37.8952 104.167C-30.2947 106.733 -22.6942 107.65 -13.5391 107.65Z" fill="#F7EDE8"/>
<path d="M142 116C143.333 117.5 145.2 120.5 142 120.5" stroke="#F7EDE8" stroke-width="2.5" stroke-linecap="round" stroke-linejoin="round"/>
<path d="M151 130C148.736 127.333 145.567 122 151 122" stroke="#F7EDE8" stroke-width="2.5" stroke-linecap="round" stroke-linejoin="round"/>
<path d="M139 124.871C141.254 125.055 145.14 126.044 142.657 128.528" stroke="#F7EDE8" stroke-width="2.5" stroke-linecap="round" stroke-linejoin="round"/>
<path d="M154.504 114.563C156.302 114.483 159.279 113.655 162.765 116.131C166.17 118.548 155.752 115.476 154.843 111.968C153.78 107.867 171.331 114.239 167.904 114.759C165.987 115.05 155.361 109.52 156.913 107.764C158.886 105.53 171.58 110.598 171.483 111.917C171.312 114.244 156.566 106.601 157.592 104.203C158.816 101.342 168.838 105.525 169.526 107.641C170.077 109.333 160.212 103.365 162.013 99.0002" stroke="#81ADC8" stroke-linecap="round"/>
<path d="M320.95 163.501C320.736 163.054 321.31 162.648 321.66 163L325.272 166.636C325.51 166.875 325.917 166.77 326.009 166.445L327.629 160.726C327.759 160.268 328.422 160.312 328.489 160.784L329.161 165.515C329.203 165.809 329.516 165.978 329.785 165.852L334.633 163.573C335.025 163.389 335.42 163.822 335.2 164.196L332.32 169.094C332.173 169.343 332.302 169.663 332.58 169.742L336.394 170.817C336.856 170.947 336.806 171.617 336.33 171.678L331.738 172.264C331.44 172.302 331.267 172.62 331.397 172.891L333.288 176.841C333.501 177.286 332.935 177.691 332.583 177.347L328.328 173.185C328.077 172.94 327.655 173.071 327.587 173.415L326.578 178.555C326.48 179.054 325.755 179.018 325.707 178.512L325.089 172.059C325.055 171.698 324.624 171.531 324.355 171.774L321.211 174.617C320.821 174.97 320.252 174.466 320.555 174.037L322.794 170.863C322.978 170.602 322.832 170.238 322.519 170.176L318.387 169.366C317.897 169.269 317.92 168.559 318.417 168.496L322.453 167.981C322.751 167.943 322.924 167.625 322.795 167.354L320.95 163.501Z" fill="#CD4631"/>
<path d="M277.119 179.718L343.489 172" stroke="black" stroke-width="1.5" stroke-linecap="round"/>
<path d="M264.065 178.109L330.435 170.391" stroke="#CD4631" stroke-width="1.5" stroke-linecap="round"/>
<path d="M336.757 171.579C336.333 171.327 336.583 170.674 337.067 170.77L339.512 171.254C340.058 171.362 340.521 170.844 340.352 170.313L339.306 167.025C339.162 166.572 339.739 166.244 340.054 166.6L341.722 168.481C342.052 168.852 342.647 168.796 342.9 168.369L344.615 165.484C344.837 165.111 345.408 165.251 345.432 165.685L345.631 169.31C345.658 169.793 346.137 170.118 346.596 169.964L348.32 169.385C348.774 169.232 349.11 169.812 348.752 170.13L346.956 171.722C346.585 172.052 346.642 172.647 347.068 172.9L348.802 173.931C349.224 174.182 348.981 174.83 348.499 174.741L345.363 174.168C344.793 174.063 344.333 174.631 344.554 175.167L345.449 177.346C345.641 177.815 345.019 178.183 344.7 177.789L342.636 175.234C342.256 174.764 341.502 174.93 341.355 175.517L341.121 176.452C340.994 176.962 340.241 176.859 340.255 176.334L340.276 175.574C340.29 175.039 339.745 174.67 339.254 174.881L337.712 175.543C337.254 175.74 336.874 175.141 337.247 174.81L338.481 173.715C338.852 173.386 338.796 172.791 338.369 172.537L336.757 171.579Z" fill="black" stroke="black" stroke-width="0.293067"/>
<path d="M52.2827 155.715C53.5859 154.681 55.1862 153.919 56.7634 154.007C57.8402 154.067 58.367 156.488 58.7117 157.263C59.1907 158.341 58.537 159.051 57.6388 159.684C57.4051 160.068 57.1858 160.509 57.0139 160.896C56.9216 161.103 56.7846 161.259 56.627 161.388C56.8943 162.144 57.5149 163.064 57.5149 163.526C57.5149 164.491 57.3674 164.78 56.4016 164.166C56.0696 163.955 55.6059 163.791 55.2884 163.514C55.1708 163.411 55.0733 163.292 55.0099 163.15C54.3094 161.574 55.9905 160.777 57.3519 159.879C57.6067 159.633 57.8063 159.353 57.9519 159.055C57.8704 158.715 57.5359 157.953 57.5149 157.764C57.3622 156.39 55.4732 156.762 54.5089 156.762C53.1357 156.762 52.6076 157.937 51.8648 158.892C51.2496 159.683 50 160.117 50 158.641C50 157.021 51.0011 156.162 52.2827 155.715Z" fill="#CD4631"/>
<path d="M50.501 157.514C51.8737 155.734 54.3458 153.873 56.7634 154.007C57.8402 154.067 58.367 156.488 58.7117 157.263C59.9345 160.014 53.7757 160.373 55.0099 163.15C55.2442 163.677 55.9466 163.876 56.4016 164.166C57.3674 164.78 57.5149 164.491 57.5149 163.526C57.5149 162.779 55.8938 160.836 56.7634 160.325C59.1232 158.937 58.6147 155.259 55.6362 155.259C53.347 155.259 50 155.68 50 158.641C50 160.117 51.2496 159.683 51.8648 158.892C52.6076 157.937 53.1357 156.762 54.5089 156.762C55.4732 156.762 57.3622 156.39 57.5149 157.764C57.5408 157.997 58.0442 159.104 57.9602 159.212C57.6119 159.659 57.2632 160.335 57.0139 160.896C56.596 161.836 55.2604 161.712 55.2604 162.899C55.2604 163.693 55.3033 163.83 55.7614 164.402C55.913 164.592 56.798 165.098 56.5129 164.528" stroke="#CD4631" stroke-width="1.50298" stroke-linecap="round" stroke-linejoin="round"/>
<path d="M58.2664 168.035C58.3185 170.118 59.3388 168.843 58.5725 168.229C58.0652 167.824 57.9233 168.935 58.5169 169.231C59.1837 169.565 59.0296 167.884 58.823 168.09C58.2858 168.628 59.4263 170.078 58.2664 169.788" stroke="#CD4631" stroke-width="1.50298" stroke-linecap="round" stroke-linejoin="round"/>
<path d="M66.0759 148.763C66.187 148.763 66.2976 148.761 66.4079 148.756C67.689 147.897 69.3993 147.389 70.0622 145.684C70.2414 145.224 70.5676 144.295 70.3845 143.664C70.3185 143.436 70.1862 143.247 69.957 143.132C69.2304 142.769 67.4239 142.324 66.7732 142.974C65.557 144.19 64.3503 145.198 62.6158 145.632C60.9927 146.038 60.6529 144.182 61.3265 143.08C62.452 141.238 63.4724 139.96 65.6944 140.001C67.3893 140.032 70.4923 140.098 71.6015 141.553C72.9141 143.276 72.6712 145.642 71.4305 147.342C70.838 148.154 69.9128 148.677 68.9734 149.086C68.8221 149.194 68.6747 149.286 68.5361 149.355C68.1651 149.541 67.5982 149.669 67.1421 149.909C66.3635 150.549 66.6416 151.605 66.6416 152.789C66.6416 153.377 66.6178 154.128 66.5241 154.894C66.4925 155.404 66.4145 155.886 66.2578 156.302C66.0806 156.951 65.8249 157.539 65.4576 157.959C65.1588 158.301 64.951 157.995 64.8109 157.542C64.2572 157.411 64.5103 156.08 64.5103 155.617C64.5103 154.169 64.4555 152.737 64.7611 151.336C64.8035 150.271 65.0043 148.763 66.0759 148.763Z" fill="#CD4631"/>
<path d="M63.0895 143.316C62.7418 141.33 64.9375 141.11 66.5101 140.711C67.7584 140.395 68.9474 140.132 70.1412 140.817C70.9179 141.262 72.01 142.404 72.0751 143.316C72.3175 146.709 69.3439 148.763 66.0759 148.763C64.7073 148.763 64.759 151.223 64.7471 152.078C64.728 153.459 64.4028 154.795 64.563 156.183C64.607 156.565 64.8339 158.672 65.4576 157.959C66.4907 156.778 66.6416 154.267 66.6416 152.789C66.6416 151.381 66.2481 150.153 67.7073 149.592C68.9981 149.095 70.5673 148.525 71.4305 147.342C72.6712 145.642 72.9141 143.276 71.6015 141.553C70.4923 140.098 67.3893 140.032 65.6944 140.001C63.4724 139.96 62.452 141.238 61.3265 143.08C60.6529 144.182 60.9927 146.038 62.6158 145.632C64.3503 145.198 65.557 144.19 66.7732 142.974C67.4239 142.324 69.2304 142.769 69.957 143.132C70.8219 143.565 70.3061 145.057 70.0622 145.684C69.0867 148.193 65.8433 148.109 65.0366 150.368C64.4272 152.074 64.5103 153.833 64.5103 155.617C64.5103 156.168 64.1519 157.947 65.2208 157.472C67.2589 156.567 66.3037 152.715 66.4048 150.894C66.4628 149.851 67.8421 149.702 68.5361 149.355C69.3758 148.935 70.5388 147.705 70.9569 146.868C71.5242 145.734 71.628 144.004 70.7858 142.974C69.7361 141.691 67.9527 142.477 66.8784 141.659C65.9454 140.948 63.9846 143.368 63.3263 144.027C63.0674 144.286 62.7781 144.513 62.4974 144.737C62.37 144.839 61.9984 145.579 61.9054 145.579C61.6133 145.579 62.249 145.094 62.4843 144.921C63.2777 144.338 64.0223 143.672 64.6024 142.869C65.2484 141.975 66.2949 142.369 67.3521 142.369C67.9593 142.369 69.3309 142.106 69.8386 142.501C70.608 143.099 70.8882 143.637 69.7202 144.027" stroke="#CD4631" stroke-width="1.42087" stroke-linecap="round" stroke-linejoin="round"/>
<path d="M66.3229 162.855C66.3434 162.844 66.3631 162.832 66.382 162.819C66.2458 162.71 65.7874 162.448 65.7075 162.261C65.3969 161.537 66.3711 161.291 66.589 161.972C66.7231 162.391 66.6113 162.661 66.382 162.819C66.4407 162.865 66.4397 162.884 66.3229 162.855Z" fill="#CD4631"/>
<path d="M65.6944 161.788C62.2408 162.565 67.2309 163.978 66.589 161.972C66.3711 161.291 65.3969 161.537 65.7075 162.261C65.8443 162.581 67.0897 163.121 65.9312 162.735" stroke="#CD4631" stroke-width="1.42087" stroke-linecap="round" stroke-linejoin="round"/>
<path d="M143.393 217.763C141.28 215.818 138.345 217.007 136.75 219.056C135.197 221.05 134.768 225.485 136.802 227.32C137.367 227.83 137.888 228.415 138.525 228.835C138.753 228.984 138.049 229.106 137.79 229.189C136.987 229.446 136.727 230.4 137.077 231.127C137.261 231.509 137.635 231.731 138.047 231.755C138.332 231.772 138.408 231.859 138.098 231.942C137.37 232.137 136.851 232.263 136.445 232.965C135.847 234.002 136.314 234.736 137.298 235.186C138.293 235.64 138.171 235.932 137.419 236.571C136.823 237.077 136.707 237.926 136.597 238.689C136.407 240.01 136.153 241.994 137.432 242.819C139.033 243.852 141.128 243.559 142.81 242.954C143.368 242.753 144.046 242.591 144.428 242.098C144.531 241.964 144.794 241.504 144.436 241.487C143.797 241.456 143.754 242.598 143.785 242.986C144.002 245.738 148.214 246.001 150.117 245.343C151.353 244.915 152.365 244.119 153.234 243.161C153.918 242.407 154.911 241.532 155.286 240.556C155.467 240.085 155.457 240.601 155.669 240.969C156.175 241.848 157.164 241.502 157.893 241.146C158.879 240.665 159.699 239.848 160.18 238.858C160.251 238.713 160.574 237.777 160.671 237.881C161.857 239.158 162.097 237.049 162.831 236.429C162.954 236.325 163.36 237.21 163.464 237.348C164.245 238.392 165.033 239.316 166.428 239.432C169.416 239.68 172.222 237.974 173.869 235.584C174.562 234.577 174.827 233.3 173.611 232.509C173.316 232.318 174.168 232.456 174.317 232.42C175.137 232.224 176.322 231.923 176.82 231.177C177.387 230.326 177.651 229.611 177.21 228.623C176.901 227.933 176.413 227.572 175.683 227.414C175.361 227.345 174.751 227.422 175.147 227.071C175.544 226.719 175.634 225.979 175.593 225.476C175.528 224.682 174.901 224.236 174.16 224.084C173.826 224.016 172.88 224.298 173.039 224.256C173.568 224.114 173.519 221.959 173.413 221.563C172.942 219.804 170.92 218.704 169.12 219.118C168.822 219.187 168.543 219.417 168.72 219.068C168.924 218.668 168.832 218.026 168.87 217.596C169.081 215.173 167.803 213.365 165.742 212.175C164.045 211.196 161.631 210.9 159.969 212.039C159.862 212.113 159.25 213.113 159.475 213.053C159.817 212.961 159.569 212.143 159.491 211.967C159.128 211.141 157.995 210.593 157.192 210.334C156.009 209.954 154.46 210.405 153.365 210.909C152.399 211.353 151.745 212.136 151.368 213.105C151.168 213.619 151.467 213.971 151.073 213.714C150.434 213.297 150.176 212.997 149.319 213.21C148.31 213.461 147.421 213.881 146.713 214.653C146.35 215.048 146.094 215.819 146.238 216.356C146.24 216.364 146.039 215.858 145.924 215.666C145.307 214.636 143.85 214.913 143.2 215.816C142.927 216.197 142.821 216.725 142.86 217.189C142.879 217.432 142.87 218.217 142.695 217.563" stroke="#81ADC8" stroke-width="1.5" stroke-linecap="round" stroke-linejoin="round"/>
<path d="M163.613 246.466C162.765 246.006 162.294 246.143 161.672 246.89C161.091 247.587 161.024 248.748 161.712 249.4C162.779 250.412 164.817 249.802 165.347 248.527C165.604 247.908 165.56 248.37 165.801 248.518C166.402 248.888 166.685 248.884 167.164 248.296C167.74 247.589 167.949 245.012 166.374 245.552C166.199 245.612 165.673 246.087 165.937 245.996C166.288 245.876 166.223 245.434 166.097 245.166C165.763 244.452 164.674 244.223 164.054 244.585C163.59 244.855 163.543 245.473 163.178 245.752C162.826 246.021 161.481 247.505 162.633 247.214" stroke="#81ADC8" stroke-width="1.5" stroke-linecap="round" stroke-linejoin="round"/>
<path d="M170.48 250.744C169.877 250.627 169.166 250.451 169.013 251.27C168.9 251.879 169.523 252.645 170.169 252.543C170.394 252.507 171.136 252.161 171.282 252.308C171.651 252.676 171.873 252.251 172.098 251.893C172.362 251.474 171.963 250.126 171.414 250.004C171.065 249.927 169.688 250.909 169.857 250.993" stroke="#81ADC8" stroke-width="1.5" stroke-linecap="round" stroke-linejoin="round"/>
<path d="M151.418 223.348C149.232 219.563 136.221 230.776 157.245 233.441" stroke="#CD4631" stroke-width="0.75" stroke-linecap="round"/>
<path d="M157.245 233.441C165.449 213.901 149.232 219.563 151.418 223.348L154.02 224.045L153.323 226.648L155.372 227.197L154.823 229.246L155.847 229.52L155.573 230.545L157.245 233.441ZM157.245 233.441C157.245 233.441 157.245 233.441 157.245 233.441Z" stroke="#CD4631" stroke-width="0.75" stroke-linecap="round" stroke-linejoin="round"/>
<path d="M147.352 226.531C147.498 226.187 147.781 225.934 147.959 225.609C148.173 225.22 148.499 224.936 148.782 224.607C148.86 224.516 149.303 224.028 149.136 224.408C148.869 225.02 148.582 225.622 148.322 226.238C148.185 226.563 148.065 226.936 147.836 227.208C147.692 227.379 147.93 226.997 147.954 226.966C148.236 226.605 148.662 226.252 149.023 225.972C149.413 225.67 149.76 225.29 150.039 224.884C150.077 224.828 150.319 224.528 150.168 224.758C149.789 225.335 149.399 225.916 149.072 226.526C148.917 226.814 148.739 227.095 148.55 227.364C148.454 227.502 148.369 227.732 148.223 227.826C148.212 227.833 148.062 228.001 148.112 227.923C148.361 227.537 148.859 227.225 149.193 226.915C149.602 226.535 150.065 226.178 150.41 225.736C150.634 225.448 150.873 225.172 151.125 224.908C151.486 224.528 150.605 225.82 150.34 226.273C150.019 226.822 149.698 227.37 149.383 227.923C149.233 228.187 149.047 228.429 148.9 228.686C148.829 228.809 148.814 228.861 148.937 228.718C149.355 228.234 149.73 227.718 150.152 227.238C150.36 227.001 150.568 226.766 150.813 226.569C150.891 226.505 151.105 226.258 150.958 226.552C150.603 227.263 150.116 227.958 149.674 228.621C149.572 228.774 149.561 228.832 149.684 228.624C149.873 228.306 150.187 227.982 150.469 227.74C150.725 227.52 150.968 227.294 151.189 227.036C151.542 226.624 151.223 227.149 151.108 227.353C150.731 228.031 150.357 228.7 150.069 229.422C150.057 229.451 149.831 230.062 149.875 230.07C149.947 230.082 150.17 229.712 150.206 229.664C150.387 229.42 150.584 229.195 150.789 228.971C151.101 228.628 151.482 228.214 151.678 227.786C151.757 227.614 151.807 227.428 151.888 227.256C151.974 227.074 151.788 227.648 151.716 227.837C151.544 228.287 151.456 228.753 151.34 229.218C151.28 229.455 151.223 229.523 151.329 229.239C151.473 228.855 151.653 228.485 151.821 228.111C151.986 227.742 151.901 228.095 151.842 228.304C151.818 228.388 151.427 229.378 151.466 229.398C151.469 229.399 151.564 229.183 151.571 229.17C151.621 229.073 151.703 228.999 151.751 228.904C151.957 228.492 151.47 230.723 151.56 230.271C151.623 229.958 151.894 229.716 152.044 229.454C152.114 229.331 152.092 229.364 152.092 229.503C152.092 229.787 152.054 230.061 152.044 230.341C152.036 230.533 152.25 230.017 152.371 229.868C152.457 229.763 152.56 229.56 152.683 229.492C152.733 229.464 152.661 230.148 152.651 230.207C152.638 230.279 152.616 230.779 152.656 230.728C152.752 230.606 152.869 230.492 152.963 230.376C153.023 230.301 153.011 230.671 153.011 230.712C153.011 231.131 153.341 230.385 153.349 230.728C153.351 230.773 153.333 231.165 153.398 231.104C153.485 231.023 153.561 230.914 153.64 230.836" stroke="#CD4631" stroke-width="0.5" stroke-linecap="round"/>
<path d="M153.64 222.178C154.103 221.715 154.566 221.257 155.021 220.803C155.181 220.642 155.158 220.795 155.115 220.967C155.062 221.178 155.003 221.355 154.921 221.555C154.747 221.98 154.738 222.485 154.489 222.877C154.131 223.439 155.289 221.81 155.698 221.284C156.048 220.834 155.211 222.324 155.088 222.88C155.087 222.885 155.341 222.517 155.413 222.426C155.687 222.078 155.978 221.731 156.292 221.418C156.32 221.389 156.574 221.121 156.568 221.227C156.546 221.64 156.25 222.065 156.058 222.417C155.862 222.778 155.701 223.155 155.499 223.511C155.419 223.653 155.317 223.825 155.287 223.989C155.259 224.14 155.487 223.756 155.494 223.748C155.831 223.329 156.204 222.94 156.555 222.533C156.944 222.081 156.636 222.65 156.531 222.855C156.351 223.208 156.186 223.567 156.01 223.92C155.861 224.217 155.7 224.519 155.526 224.801C155.407 224.994 155.38 225.302 155.225 225.456C154.933 225.749 155.784 224.84 156.117 224.597C156.474 224.336 156.741 223.87 156.929 223.484C157.066 223.202 157.244 222.977 157.401 222.71C157.431 222.661 157.532 222.532 157.525 222.549C157.391 222.898 157.127 223.186 157.025 223.554C156.857 224.164 156.522 224.777 156.251 225.349C156.059 225.756 156.512 225.169 156.609 225.064C156.83 224.827 157.061 224.611 157.264 224.358C157.359 224.239 157.472 224.119 157.555 223.995C157.804 223.62 157.004 224.707 156.714 225.051C156.52 225.28 156.418 225.588 156.23 225.83C156.147 225.936 156.114 226.072 155.988 226.144C155.944 226.169 156.201 226.031 156.251 225.989C156.485 225.788 156.716 225.583 156.934 225.365C157.128 225.171 157.369 224.81 157.63 224.693C157.808 224.614 157.879 224.518 157.676 224.771C157.468 225.028 157.35 225.297 157.216 225.588C157.105 225.829 156.889 226.028 156.783 226.265C156.758 226.322 156.634 226.569 156.668 226.523C156.933 226.17 157.218 225.855 157.53 225.542C157.775 225.298 157.364 226.193 157.318 226.284C157.213 226.494 157.099 226.71 156.955 226.894C156.779 227.121 156.628 227.396 156.504 227.644C156.447 227.758 156.386 227.843 156.3 227.934C156.052 228.196 156.506 227.797 156.579 227.74C156.912 227.483 157.319 227.275 157.616 226.977C157.866 226.728 157.239 227.574 157.074 227.886C156.931 228.155 156.723 228.355 156.515 228.563C156.337 228.741 156.921 228.374 156.988 228.321C157.008 228.305 157.212 228.117 157.24 228.141C157.35 228.235 157.221 228.546 157.192 228.649C157.165 228.746 157.122 228.867 157.122 228.968C157.122 229.036 157.207 228.862 157.256 228.815C157.441 228.637 157.17 229.387 157.17 229.482C157.17 229.588 157.041 230.003 157.063 229.965C157.081 229.933 157.025 230.274 157.025 230.352" stroke="#CD4631" stroke-width="0.5" stroke-linecap="round"/>
</svg>
